<?xml version="1.0" encoding="utf-8"?>
<!-- Generator: Adobe Illustrator 16.0.0, SVG Export Plug-In . SVG Version: 6.00 Build 0)  -->
<!DOCTYPE svg PUBLIC "-//W3C//DTD SVG 1.1//EN" "http://www.w3.org/Graphics/SVG/1.1/DTD/svg11.dtd">
<svg version="1.1" id="Capa_1" xmlns="http://www.w3.org/2000/svg" xmlns:xlink="http://www.w3.org/1999/xlink" x="0px" y="0px"
	 width="100px" height="100px" viewBox="0 0 100 100" enable-background="new 0 0 100 100" xml:space="preserve">
<g>
	<g>
		<g>
			<path fill="#753469" d="M50,0C22.387,0,0,22.387,0,50s22.387,50,50,50s50-22.387,50-50C100,22.38,77.613,0,50,0z M81.248,78.996
				c0,1.241-1.011,2.252-2.266,2.252H21.003c-1.241,0-2.258-1.004-2.258-2.252V21.003c0-1.241,1.01-2.258,2.258-2.258h57.979
				c1.248,0,2.266,1.01,2.266,2.258V78.996z M37.498,50c0-6.902,5.6-12.502,12.502-12.502c6.902,0,12.502,5.6,12.502,12.502
				c0,6.902-5.6,12.502-12.502,12.502C43.098,62.502,37.498,56.901,37.498,50z M62.502,24.997h12.502v12.501H62.502V24.997z
				 M68.184,46.875h6.82v28.122h-50V46.875h6.827c-0.265,1.254-0.42,1.796-0.42,3.125c0,10.265,8.346,18.597,18.597,18.597
				c10.265,0,18.597-8.333,18.597-18.597C68.597,48.671,68.447,48.129,68.184,46.875z"/>
		</g>
	</g>
</g>
</svg>
